<?xml version="1.0" encoding="UTF-8"?>
<svg xmlns="http://www.w3.org/2000/svg" version="1.1" viewBox="0 0 566.929 566.929">
  <g id="Outside">
    <g id="Bottom_Left">
      <path d="M119.679,420.764l-77.003,77.553s-2.873,3.643-1.177,9.132c1.697,5.49,9.019,18.334,19.304,20.058,6.755,1.132,8.721-.656,8.721-.656l77.65-78.593-27.477-27.511" fill="#435"/>
    </g>
    <g id="Bottom_Right">
      <path d="M421.433,446.605l41.876,45.487,26.457,40.446s9.379,6.427,20.929,1.294,18.226-14.462,18.226-14.462c0,0,7.168-9.998,7.761-20.578.496-8.872-4.294-12.758-4.294-12.758l-39.564-23.691-44.035-43.112-27.356,27.374" fill="#435"/>
    </g>
    <g id="Top_Right">
      <path d="M352.43,75.324l-9.811-11.296c7.032-5.706,14.242-10.725,21.566-15.061l11.128,12.765-19.562,16.913,2.668,2.668,19.364-16.744,14.951,17.149-18.177,15.735,2.668,2.668,17.981-15.567,16.169,18.55-16.668,14.499,2.668,2.667,16.472-14.331,14.469,16.598-15.377,13.298,2.668,2.668,15.185-13.129,16.623,19.071-13.855,12.01,2.667,2.666,13.661-11.838,16.12,18.49-12.401,10.727,2.667,2.667,12.207-10.559,15.929,18.274-10.953,9.467,2.667,2.667,10.76-9.3,16.241,18.635-9.476,8.188,2.667,2.668,9.281-8.023,9.369,10.747c-2.264,2.985-4.663,5.902-7.176,8.75l14.116,14.116c54.688-59.651,60.708-148.691,11.72-199.044-53.194-54.682-138.762-54.997-207.627,3.14l26.431,26.431h0ZM380.631,62.107l16.322-14.113,14.903,17.169-16.278,14.093s-14.947-17.149-14.947-17.149ZM398.051,82.089l16.271-14.085,16.091,18.538-16.197,14.091-16.165-18.544ZM490.968,111.678l16.07,18.607-19.235,16.638-16.098-18.55,19.263-16.695ZM469.238,125.532l-16.562-19.081,19.339-16.722,16.494,19.101-19.271,16.702h0ZM509.498,133.132l15.859,18.363-19.191,16.583-15.897-18.316,19.229-16.63ZM493.813,109.214l16.77-14.532,16.104,18.607-16.803,14.535-16.071-18.61h0ZM491.352,106.365l-16.493-19.096,16.761-14.493,16.499,19.06-16.767,14.529h0ZM472.399,84.42l-14.508-16.798,16.695-14.527,14.571,16.835-16.758,14.49h0ZM469.553,86.882l-19.346,16.726-14.489-16.694,19.335-16.821,14.5,16.789h0ZM433.25,84.072l-16.082-18.531,19.428-16.818,15.997,18.522-19.343,16.827h0ZM416.688,103.469l16.19-14.086,14.483,16.687-16.197,14.006-14.476-16.607ZM433.636,122.911l16.191-13.999,16.567,19.084-16.135,13.985-16.623-19.07ZM452.732,144.817l16.129-13.978,16.097,18.544-16.104,13.928-16.122-18.494ZM471.328,166.148l16.095-13.923,15.897,18.314-16.062,13.882-15.93-18.273ZM489.728,187.257l16.059-13.878,16.2,18.667-16.015,13.844-16.244-18.633h0ZM517.252,218.832l-8.808-10.107,16.01-13.836,4.377,5.043c-3.343,6.492-7.209,12.816-11.579,18.9ZM530.647,196.282l-3.345-3.855,8.007-6.922c-1.402,3.628-2.955,7.225-4.662,10.777h0ZM537.883,178.307l-13.049,11.278-16.2-18.665,19.182-16.579,12.742,14.756c-.784,3.078-1.675,6.156-2.675,9.21h0ZM541.626,164.576l-10.965-12.692,14.066-12.154c-.24,8.227-1.281,16.555-3.101,24.846h0ZM544.771,134.717l-16.567,14.317-15.861-18.363,16.807-14.538,15.621,18.047c.002.18,0,.36,0,.537h0ZM544.531,128.156l-12.534-14.483,8.947-7.738c1.908,7.182,3.103,14.627,3.587,22.221ZM539.797,101.949l-10.265,8.879-16.108-18.609,15.795-13.69c4.52,7.296,8.039,15.165,10.578,23.42ZM516.646,62.407c3.922,4.03,7.414,8.361,10.505,12.934l-16.189,14.031-16.497-19.057,15.987-13.824c2.117,1.881,4.182,3.85,6.194,5.916ZM507.571,54.009l-15.567,13.462-14.577-16.845,10.939-9.52c6.73,3.566,13.158,7.868,19.205,12.903ZM484.734,39.28l-9.772,8.501-14.643-16.918c8.435,1.842,16.613,4.648,24.415,8.417ZM472.125,50.251l-16.694,14.523-15.989-18.516,16.707-14.465s15.976,18.458,15.976,18.458ZM453.033,29.515l-16.051,13.897-12.661-14.662c9.738-.899,19.36-.642,28.712.765ZM419.786,29.26l14.35,16.614-19.436,16.826-14.901-17.167,18.615-16.097c.459-.064.916-.117,1.372-.176ZM411.265,30.647l-13.934,12.045-5.752-6.629c6.555-2.325,13.129-4.128,19.686-5.416ZM387.81,37.461l6.676,7.69-16.326,14.12-10.656-12.221c6.7-3.763,13.487-6.957,20.306-9.589Z" fill="#435"/>
    </g>
    <g id="Top_Left">
      <path d="M175.96,113.944S102.426,14.636,61.954,6.366C20.136-2.178-5.551,31.181,1.022,63.951c8.738,43.561,102.578,122.288,102.578,122.288l72.36-72.295" fill="#435"/>
    </g>
  </g>
  <g id="Outer_Square">
    <g id="Bottom_Right1">
      <polygon points="476.253 298.167 530.266 298.427 549.927 318.095 526.333 341.688 506.666 322.023 457.859 316.562 476.253 298.167" fill="#c9f"/>
      <polygon points="454.795 319.629 502.736 325.958 522.401 345.621 498.802 369.215 479.139 349.554 436.4 338.019 454.795 319.629" fill="#c9f"/>
      <polygon points="433.334 341.086 475.206 353.486 494.869 373.147 471.274 396.743 451.613 377.08 414.938 359.481 433.334 341.086" fill="#c9f"/>
      <polygon points="411.875 362.55 447.676 381.013 467.341 400.68 443.744 424.273 424.08 404.612 393.48 380.944 411.875 362.55" fill="#c9f"/>
      <polygon points="390.412 384.007 420.15 408.543 439.811 428.207 416.215 451.801 396.554 432.14 372.018 402.402 390.412 384.007" fill="#c9f"/>
      <polygon points="368.955 405.467 392.621 436.072 412.284 455.737 388.691 479.333 369.023 459.666 350.555 423.865 368.955 405.467" fill="#c9f"/>
      <polygon points="347.491 426.929 365.09 463.602 384.756 483.266 361.156 506.859 341.494 487.198 329.097 445.323 347.491 426.929" fill="#c9f"/>
      <polygon points="326.033 448.39 337.562 491.129 357.225 510.792 333.629 534.386 313.968 514.725 307.638 466.784 326.033 448.39" fill="#c9f"/>
      <polygon points="304.571 469.853 310.031 518.657 329.697 538.322 306.099 561.919 286.439 542.251 286.178 488.244 304.571 469.853" fill="#c9f"/>
    </g>
    <g id="Top_Right1">
      <polygon points="476.253 292.745 530.266 292.485 549.927 272.82 526.333 249.225 506.666 268.891 457.859 274.35 476.253 292.745" fill="#c9f"/>
      <polygon points="454.795 271.284 502.736 264.955 522.401 245.294 498.802 221.698 479.139 241.361 436.4 252.892 454.795 271.284" fill="#c9f"/>
      <polygon points="433.334 249.826 475.206 237.428 494.869 217.765 471.274 194.17 451.613 213.833 414.938 231.431 433.334 249.826" fill="#c9f"/>
      <polygon points="411.875 228.365 447.676 209.9 467.341 190.234 443.744 166.639 424.08 186.301 393.48 209.968 411.875 228.365" fill="#c9f"/>
      <polygon points="390.412 206.905 420.15 182.37 439.811 162.707 416.215 139.112 396.554 158.774 372.018 188.511 390.412 206.905" fill="#c9f"/>
      <polygon points="368.955 185.446 392.621 154.841 412.284 135.176 388.691 111.582 369.023 131.247 350.555 167.048 368.955 185.446" fill="#c9f"/>
      <polygon points="347.491 163.985 365.09 127.311 384.756 107.648 361.156 84.052 341.494 103.715 329.097 145.589 347.491 163.985" fill="#c9f"/>
      <polygon points="326.033 142.522 337.562 99.783 357.225 80.121 333.629 56.526 313.968 76.188 307.638 124.127 326.033 142.522" fill="#c9f"/>
      <polygon points="304.571 121.061 310.031 72.255 329.697 52.59 306.099 28.995 286.437 48.661 286.176 102.669 304.571 121.061" fill="#c9f"/>
    </g>
    <g id="Bottom_Left1">
      <polygon points="90.678 298.167 36.666 298.427 17.004 318.095 40.598 341.688 60.265 322.023 109.072 316.562 90.678 298.167" fill="#c9f"/>
      <polygon points="112.137 319.629 64.197 325.958 44.531 345.621 68.129 369.215 87.792 349.554 130.531 338.019 112.137 319.629" fill="#c9f"/>
      <polygon points="133.598 341.086 91.725 353.486 72.061 373.147 95.657 396.743 115.318 377.08 151.994 359.481 133.598 341.086" fill="#c9f"/>
      <polygon points="155.058 362.55 119.256 381.013 99.59 400.68 123.187 424.273 142.851 404.612 173.451 380.944 155.058 362.55" fill="#c9f"/>
      <polygon points="176.519 384.007 146.782 408.543 127.12 428.207 150.716 451.801 170.378 432.14 194.915 402.402 176.519 384.007" fill="#c9f"/>
      <polygon points="197.977 405.467 174.311 436.072 154.647 455.737 178.242 479.333 197.908 459.666 216.376 423.865 197.977 405.467" fill="#c9f"/>
      <polygon points="219.44 426.929 201.841 463.602 182.176 483.266 205.774 506.859 225.437 487.198 237.835 445.323 219.44 426.929" fill="#c9f"/>
      <polygon points="240.897 448.39 229.369 491.129 209.706 510.792 233.302 534.386 252.963 514.725 259.293 466.784 240.897 448.39" fill="#c9f"/>
      <polygon points="262.359 469.853 256.9 518.657 237.234 538.322 260.832 561.919 280.493 542.251 280.754 488.244 262.359 469.853" fill="#c9f"/>
    </g>
    <g id="Top_Left1">
      <polygon points="90.678 292.745 36.666 292.485 17.004 272.82 40.598 249.225 60.264 268.891 109.072 274.35 90.678 292.745" fill="#c9f"/>
      <polygon points="112.137 271.284 64.197 264.955 44.531 245.294 68.129 221.698 87.792 241.361 130.532 252.892 112.137 271.284" fill="#c9f"/>
      <polygon points="133.598 249.826 91.725 237.428 72.061 217.765 95.657 194.17 115.318 213.833 151.994 231.431 133.598 249.826" fill="#c9f"/>
      <polygon points="155.058 228.365 119.256 209.9 99.59 190.234 123.188 166.639 142.851 186.301 173.452 209.968 155.058 228.365" fill="#c9f"/>
      <polygon points="176.52 206.905 146.782 182.37 127.12 162.707 150.716 139.112 170.378 158.774 194.915 188.511 176.52 206.905" fill="#c9f"/>
      <polygon points="197.977 185.446 174.31 154.841 154.647 135.176 178.242 111.582 197.908 131.247 216.377 167.048 197.977 185.446" fill="#c9f"/>
      <polygon points="219.44 163.985 201.841 127.311 182.176 107.648 205.774 84.052 225.437 103.715 237.835 145.589 219.44 163.985" fill="#c9f"/>
      <polygon points="240.897 142.522 229.369 99.783 209.706 80.121 233.302 56.526 252.964 76.188 259.293 124.127 240.897 142.522" fill="#c9f"/>
      <polygon points="262.361 121.061 256.901 72.255 237.234 52.59 260.832 28.995 280.494 48.661 280.755 102.669 262.361 121.061" fill="#c9f"/>
    </g>
  </g>
  <g id="Inner_Square">
    <path id="Core" d="M283.466,481.399c-2.098,0-4.196-.802-5.799-2.4l-177.743-177.747c-3.201-3.198-3.201-8.392,0-11.591l160.321-160.322h46.438l160.322,160.322c3.201,3.199,3.201,8.393,0,11.591l-177.742,177.747c-1.6,1.599-3.698,2.4-5.797,2.4" fill="#435"/>
    <g id="Ball">
      <path d="M283.479,341.094c-34.538.014-62.687-28.144-62.658-62.678.027-34.551,28.167-62.619,62.739-62.585,34.448.036,62.515,28.105,62.55,62.556.035,34.541-28.081,62.693-62.631,62.707h0Z" fill="#fff" fill-rule="evenodd"/>
      <path d="M340.38,263.809h-15.613l-7.993-13.988,7.665-13.412c-6.952-6.771-15.566-11.837-25.162-14.524l-7.818,13.68h-15.986l-7.812-13.672c-9.604,2.687-18.219,7.748-25.17,14.517l7.668,13.416-7.992,13.983h-15.617c-1.204,4.673-1.849,9.569-1.853,14.612-.004,5.072.641,9.998,1.854,14.698h15.611l7.994,13.987-7.661,13.409c6.951,6.771,15.564,11.835,25.16,14.523l7.816-13.675h15.986l7.815,13.675c9.598-2.688,18.211-7.752,25.161-14.523l-7.661-13.409,7.993-13.987h15.609c1.216-4.708,1.862-9.643,1.857-14.728-.004-5.03-.648-9.917-1.851-14.582h0ZM275.776,237.165h15.226l7.613,13.322-7.613,13.322h-15.226l-7.614-13.322,7.614-13.322h0ZM251.299,250.82h15.225l7.614,13.321-7.614,13.324h-15.225l-7.613-13.324,7.613-13.321h0ZM251.299,306.11l-7.613-13.324,7.613-13.32h15.225l7.614,13.32-7.614,13.324h-15.225,0ZM291.077,319.765h-15.225l-7.613-13.322,7.613-13.323h15.225l7.613,13.323-7.613,13.322ZM315.631,306.11h-15.225l-7.615-13.324,7.615-13.32h15.225l7.614,13.32-7.614,13.324ZM315.631,277.466h-15.225l-7.615-13.324,7.615-13.321h15.225l7.614,13.321-7.614,13.324Z" fill="#c9f" fill-rule="evenodd"/>
    </g>
    <g id="Left_Leaves">
      <path d="M180.313,258.792c-10.673-1.487-17.364-15.012-11.137-23.872,10.735.175,18.791,14.769,11.137,23.872Z" fill="#c9f" fill-rule="evenodd"/>
      <path d="M155.296,264.321c9.718-4.659,22.77,2.915,22.476,13.741-9.043,5.785-23.822-1.924-22.476-13.741Z" fill="#c9f" fill-rule="evenodd"/>
      <path d="M153.052,288.988c8.725-6.327,22.922-1.216,24.574,9.49-7.859,7.312-23.781,2.376-24.574-9.49Z" fill="#c9f" fill-rule="evenodd"/>
      <path d="M158.917,314.951c7.219-8.004,22.168-5.957,26.01,4.169-6.166,8.788-22.765,7.273-26.01-4.169Z" fill="#c9f" fill-rule="evenodd"/>
      <path d="M173.04,338.852c4.264-9.896,19.079-12.764,25.971-4.41-3.016,10.305-19.222,14.204-25.971,4.41h0Z" fill="#c9f" fill-rule="evenodd"/>
      <path d="M189.879,353.553c4.463-9.809,19.332-12.375,26.054-3.884-3.223,10.242-19.504,13.813-26.054,3.884Z" fill="#c9f" fill-rule="evenodd"/>
      <path d="M212.556,253.368c-4.168,9.937-18.955,12.945-25.928,4.659,2.916-10.332,19.085-14.388,25.928-4.659h0Z" fill="#c9f" fill-rule="evenodd"/>
      <path d="M205.403,273.429c-3.856,10.063-18.541,13.534-25.77,5.469,2.592-10.418,18.625-14.977,25.77-5.469Z" fill="#c9f" fill-rule="evenodd"/>
      <path d="M205.173,291.422c-3.642,10.143-18.251,13.923-25.648,6.013,2.371-10.471,18.305-15.37,25.648-6.013Z" fill="#c9f" fill-rule="evenodd"/>
      <path d="M211.854,303.38c.517,10.765-11.534,19.848-21.396,15.369-1.816-10.582,11.03-21.203,21.396-15.369Z" fill="#c9f" fill-rule="evenodd"/>
      <path d="M219.11,313.595c4.13,9.953-4.132,22.584-14.927,21.708-5.292-9.341,3.198-23.686,14.927-21.708Z" fill="#c9f" fill-rule="evenodd"/>
      <path d="M225.945,324.379c8.071,7.138,6.175,22.11-3.912,26.053-8.848-6.08-7.499-22.698,3.912-26.053Z" fill="#c9f" fill-rule="evenodd"/>
    </g>
    <g id="Right_Leaves">
      <path d="M386.615,258.684c10.675-1.487,17.364-15.012,11.138-23.872-10.736.176-18.792,14.77-11.138,23.872Z" fill="#c9f" fill-rule="evenodd"/>
      <path d="M411.632,264.214c-9.717-4.659-22.769,2.914-22.476,13.741,9.044,5.785,23.821-1.924,22.476-13.741Z" fill="#c9f" fill-rule="evenodd"/>
      <path d="M413.876,288.881c-8.725-6.327-22.923-1.216-24.572,9.49,7.859,7.311,23.778,2.376,24.572-9.49Z" fill="#c9f" fill-rule="evenodd"/>
      <path d="M408.013,314.844c-7.218-8.004-22.169-5.957-26.011,4.169,6.167,8.788,22.765,7.273,26.011-4.169Z" fill="#c9f" fill-rule="evenodd"/>
      <path d="M393.889,338.745c-4.266-9.897-19.079-12.764-25.97-4.41,3.015,10.304,19.221,14.204,25.97,4.41Z" fill="#c9f" fill-rule="evenodd"/>
      <path d="M377.051,353.445c-4.464-9.809-19.333-12.375-26.055-3.884,3.222,10.243,19.504,13.814,26.055,3.884Z" fill="#c9f" fill-rule="evenodd"/>
      <path d="M354.372,253.26c4.169,9.937,18.957,12.945,25.93,4.659-2.918-10.331-19.086-14.387-25.93-4.659h0Z" fill="#c9f" fill-rule="evenodd"/>
      <path d="M361.527,273.322c3.855,10.062,18.539,13.534,25.77,5.469-2.592-10.418-18.626-14.978-25.77-5.469Z" fill="#c9f" fill-rule="evenodd"/>
      <path d="M361.757,291.314c3.641,10.143,18.251,13.923,25.647,6.013-2.371-10.471-18.304-15.369-25.647-6.013Z" fill="#c9f" fill-rule="evenodd"/>
      <path d="M355.075,303.272c-.516,10.765,11.534,19.848,21.395,15.369,1.818-10.582-11.029-21.203-21.395-15.369Z" fill="#c9f" fill-rule="evenodd"/>
      <path d="M347.819,313.487c-4.129,9.953,4.133,22.584,14.927,21.708,5.293-9.339-3.198-23.685-14.927-21.708Z" fill="#c9f" fill-rule="evenodd"/>
      <path d="M340.984,324.27c-8.07,7.139-6.175,22.11,3.912,26.054,8.848-6.079,7.501-22.697-3.912-26.054h0Z" fill="#c9f" fill-rule="evenodd"/>
    </g>
  </g>
</svg>
