<?xml version="1.0" encoding="UTF-8"?>
<svg xmlns="http://www.w3.org/2000/svg" version="1.1" viewBox="0 0 566.93 566.93">
  <g id="Outer_Square">
    <g id="Bottom_Right">
      <polygon points="488.55 286.35 546.01 286.62 566.93 307.55 541.83 332.65 520.91 311.73 468.99 305.92 488.55 286.35" fill="#c9f"/>
      <polygon points="465.73 309.18 516.72 315.91 537.65 336.83 512.54 361.93 491.62 341.01 446.16 328.74 465.73 309.18" fill="#c9f"/>
      <polygon points="442.9 332.01 487.44 345.2 508.36 366.11 483.26 391.21 462.34 370.3 423.33 351.58 442.9 332.01" fill="#c9f"/>
      <polygon points="420.07 354.84 458.15 374.48 479.07 395.4 453.97 420.5 433.05 399.58 400.5 374.41 420.07 354.84" fill="#c9f"/>
      <polygon points="397.24 377.67 428.87 403.77 449.79 424.68 424.68 449.79 403.77 428.87 377.67 397.23 397.24 377.67" fill="#c9f"/>
      <polygon points="374.41 400.49 399.58 433.05 420.5 453.97 395.4 479.07 374.48 458.15 354.83 420.07 374.41 400.49" fill="#c9f"/>
      <polygon points="351.58 423.33 370.3 462.34 391.22 483.26 366.11 508.36 345.2 487.44 332.01 442.89 351.58 423.33" fill="#c9f"/>
      <polygon points="328.75 446.16 341.01 491.62 361.93 512.54 336.83 537.64 315.91 516.72 309.18 465.73 328.75 446.16" fill="#c9f"/>
      <polygon points="305.92 468.99 311.73 520.91 332.65 541.83 307.54 566.93 286.63 546.01 286.35 488.55 305.92 468.99" fill="#c9f"/>
    </g>
    <g id="Top_Right">
      <polygon points="488.55 280.58 546.01 280.3 566.93 259.38 541.83 234.28 520.91 255.2 468.99 261.01 488.55 280.58" fill="#c9f"/>
      <polygon points="465.73 257.75 516.72 251.02 537.65 230.1 512.54 205 491.62 225.92 446.16 238.18 465.73 257.75" fill="#c9f"/>
      <polygon points="442.89 234.92 487.44 221.73 508.36 200.82 483.26 175.71 462.34 196.63 423.33 215.35 442.89 234.92" fill="#c9f"/>
      <polygon points="420.07 212.09 458.15 192.45 479.07 171.53 453.97 146.43 433.05 167.34 400.5 192.52 420.07 212.09" fill="#c9f"/>
      <polygon points="397.23 189.26 428.87 163.16 449.79 142.24 424.68 117.14 403.77 138.06 377.67 169.69 397.23 189.26" fill="#c9f"/>
      <polygon points="374.41 166.43 399.58 133.88 420.5 112.96 395.4 87.86 374.48 108.78 354.83 146.86 374.41 166.43" fill="#c9f"/>
      <polygon points="351.58 143.6 370.3 104.59 391.22 83.67 366.11 58.57 345.2 79.49 332.01 124.03 351.58 143.6" fill="#c9f"/>
      <polygon points="328.75 120.77 341.01 75.31 361.93 54.39 336.83 29.29 315.91 50.21 309.18 101.2 328.75 120.77" fill="#c9f"/>
      <polygon points="305.92 97.94 311.73 46.02 332.65 25.1 307.54 0 286.63 20.92 286.35 78.38 305.92 97.94" fill="#c9f"/>
    </g>
    <g id="Bottom_Left">
      <polygon points="78.38 286.35 20.92 286.62 0 307.55 25.1 332.65 46.02 311.73 97.94 305.92 78.38 286.35" fill="#c9f"/>
      <polygon points="101.2 309.18 50.21 315.91 29.28 336.83 54.39 361.93 75.31 341.01 120.77 328.74 101.2 309.18" fill="#c9f"/>
      <polygon points="124.03 332.01 79.49 345.2 58.57 366.11 83.67 391.21 104.59 370.3 143.6 351.58 124.03 332.01" fill="#c9f"/>
      <polygon points="146.86 354.84 108.78 374.48 87.86 395.4 112.96 420.5 133.88 399.58 166.43 374.41 146.86 354.84" fill="#c9f"/>
      <polygon points="169.69 377.67 138.06 403.77 117.14 424.68 142.24 449.79 163.16 428.87 189.26 397.23 169.69 377.67" fill="#c9f"/>
      <polygon points="192.52 400.49 167.34 433.05 146.43 453.97 171.53 479.07 192.45 458.15 212.09 420.07 192.52 400.49" fill="#c9f"/>
      <polygon points="215.35 423.33 196.63 462.34 175.71 483.26 200.82 508.36 221.73 487.44 234.92 442.89 215.35 423.33" fill="#c9f"/>
      <polygon points="238.18 446.16 225.92 491.62 205 512.54 230.1 537.64 251.02 516.72 257.75 465.73 238.18 446.16" fill="#c9f"/>
      <polygon points="261.01 468.99 255.2 520.91 234.28 541.83 259.39 566.93 280.3 546.01 280.58 488.55 261.01 468.99" fill="#c9f"/>
    </g>
    <g id="Top_Left">
      <polygon points="78.38 280.58 20.92 280.3 0 259.38 25.1 234.28 46.02 255.2 97.94 261.01 78.38 280.58" fill="#c9f"/>
      <polygon points="101.2 257.75 50.21 251.02 29.28 230.1 54.39 205 75.31 225.92 120.77 238.18 101.2 257.75" fill="#c9f"/>
      <polygon points="124.03 234.92 79.49 221.73 58.57 200.82 83.67 175.71 104.59 196.63 143.6 215.35 124.03 234.92" fill="#c9f"/>
      <polygon points="146.86 212.09 108.78 192.45 87.86 171.53 112.96 146.43 133.88 167.34 166.43 192.52 146.86 212.09" fill="#c9f"/>
      <polygon points="169.69 189.26 138.06 163.16 117.14 142.24 142.24 117.14 163.16 138.06 189.26 169.69 169.69 189.26" fill="#c9f"/>
      <polygon points="192.52 166.43 167.34 133.88 146.43 112.96 171.53 87.86 192.45 108.78 212.1 146.86 192.52 166.43" fill="#c9f"/>
      <polygon points="215.35 143.6 196.63 104.59 175.71 83.67 200.82 58.57 221.73 79.49 234.92 124.03 215.35 143.6" fill="#c9f"/>
      <polygon points="238.18 120.77 225.92 75.31 205 54.39 230.1 29.29 251.02 50.21 257.75 101.2 238.18 120.77" fill="#c9f"/>
      <polygon points="261.01 97.94 255.2 46.02 234.28 25.1 259.39 0 280.3 20.92 280.58 78.38 261.01 97.94" fill="#c9f"/>
    </g>
  </g>
  <g id="Inner_Square">
    <path id="Core" d="M283.47,481.27c-2.23,0-4.46-.85-6.17-2.55l-189.09-189.09c-3.4-3.4-3.4-8.93,0-12.33l170.55-170.55h49.4l170.55,170.55c3.4,3.4,3.4,8.93,0,12.33l-189.08,189.09c-1.7,1.7-3.93,2.55-6.17,2.55" fill="#435"/>
    <path id="I" d="M208.26,310.02l71.28-30.26c2.38-1.01,3.92-3.34,3.92-5.93v-140.17c0-1.76-2.41-2.24-3.09-.63l-74.23,174.87c-.56,1.33.78,2.68,2.11,2.11h0l.01.01Z" fill="#fff"/>
    <path id="T" d="M194.82,331.07l82.86-16.86c3-.61,5.79,1.68,5.79,4.74v114.32c0,1.76,2.41,2.24,3.09.63l54.46-128.29c1.25-2.93,3.85-5.06,6.97-5.7l2.84-.58c3.64-.74,6.68-3.23,8.13-6.64l15.47-36.45c1.13-2.67-1.56-5.35-4.22-4.22l-176.64,74.99c-2.38,1.01-1.27,4.58,1.26,4.07l-.01-.01Z" fill="#fff"/>
  </g>
</svg>
