<?xml version="1.0" encoding="UTF-8"?>
<svg xmlns="http://www.w3.org/2000/svg" version="1.1" viewBox="0 0 566.929 566.929">
  <g id="Outer_Square">
    <g id="Bottom_Right">
      <polygon points="488.554 286.348 546.013 286.625 566.929 307.546 541.83 332.647 520.908 311.726 468.986 305.916 488.554 286.348" fill="#c9f"/>
      <polygon points="465.726 309.179 516.725 315.912 537.646 336.829 512.542 361.93 491.624 341.013 446.158 328.744 465.726 309.179" fill="#c9f"/>
      <polygon points="442.896 332.007 487.441 345.197 508.359 366.114 483.257 391.214 462.341 370.297 423.326 351.575 442.896 332.007" fill="#c9f"/>
      <polygon points="420.067 354.838 458.153 374.481 479.074 395.402 453.97 420.502 433.052 399.585 400.499 374.408 420.067 354.838" fill="#c9f"/>
      <polygon points="397.236 377.666 428.869 403.768 449.786 424.685 424.685 449.786 403.769 428.869 377.666 397.235 397.236 377.666" fill="#c9f"/>
      <polygon points="374.408 400.494 399.585 433.052 420.503 453.973 395.403 479.074 374.482 458.153 354.835 420.067 374.408 400.494" fill="#c9f"/>
      <polygon points="351.575 423.326 370.298 462.34 391.218 483.257 366.113 508.358 345.197 487.441 332.007 442.895 351.575 423.326" fill="#c9f"/>
      <polygon points="328.749 446.158 341.013 491.623 361.931 512.54 336.829 537.641 315.913 516.724 309.179 465.726 328.749 446.158" fill="#c9f"/>
      <polygon points="305.917 468.989 311.726 520.908 332.646 541.829 307.542 566.929 286.627 546.008 286.349 488.554 305.917 468.989" fill="#c9f"/>
    </g>
    <g id="Top_Right">
      <polygon points="488.554 280.581 546.012 280.304 566.929 259.383 541.828 234.282 520.908 255.203 468.986 261.013 488.554 280.581" fill="#c9f"/>
      <polygon points="465.726 257.75 516.725 251.017 537.646 230.1 512.541 204.999 491.624 225.916 446.157 238.185 465.726 257.75" fill="#c9f"/>
      <polygon points="442.895 234.922 487.441 221.733 508.358 200.816 483.257 175.715 462.341 196.632 423.326 215.354 442.895 234.922" fill="#c9f"/>
      <polygon points="420.067 212.091 458.153 192.448 479.074 171.527 453.969 146.427 433.052 167.344 400.498 192.522 420.067 212.091" fill="#c9f"/>
      <polygon points="397.235 189.263 428.869 163.161 449.786 142.244 424.685 117.144 403.768 138.061 377.666 169.694 397.235 189.263" fill="#c9f"/>
      <polygon points="374.408 166.435 399.585 133.877 420.502 112.956 395.403 87.856 374.482 108.776 354.834 146.862 374.408 166.435" fill="#c9f"/>
      <polygon points="351.575 143.604 370.298 104.589 391.218 83.672 366.113 58.571 345.197 79.488 332.007 124.034 351.575 143.604" fill="#c9f"/>
      <polygon points="328.749 120.772 341.013 75.306 361.93 54.389 336.829 29.288 315.912 50.205 309.179 101.203 328.749 120.772" fill="#c9f"/>
      <polygon points="305.916 97.94 311.725 46.022 332.646 25.101 307.542 0 286.626 20.921 286.348 78.375 305.916 97.94" fill="#c9f"/>
    </g>
    <g id="Bottom_Left">
      <polygon points="78.376 286.348 20.917 286.625 0 307.546 25.1 332.647 46.022 311.726 97.944 305.916 78.376 286.348" fill="#c9f"/>
      <polygon points="101.204 309.179 50.205 315.912 29.284 336.829 54.387 361.93 75.305 341.013 120.772 328.744 101.204 309.179" fill="#c9f"/>
      <polygon points="124.034 332.007 79.489 345.197 58.571 366.114 83.672 391.214 104.588 370.297 143.604 351.575 124.034 332.007" fill="#c9f"/>
      <polygon points="146.863 354.838 108.777 374.481 87.856 395.402 112.96 420.502 133.878 399.585 166.43 374.408 146.863 354.838" fill="#c9f"/>
      <polygon points="169.694 377.666 138.06 403.768 117.143 424.685 142.245 449.786 163.161 428.869 189.263 397.235 169.694 377.666" fill="#c9f"/>
      <polygon points="192.521 400.494 167.344 433.052 146.426 453.973 171.527 479.074 192.448 458.153 212.094 420.067 192.521 400.494" fill="#c9f"/>
      <polygon points="215.354 423.326 196.631 462.34 175.712 483.257 200.816 508.358 221.733 487.441 234.923 442.895 215.354 423.326" fill="#c9f"/>
      <polygon points="238.18 446.158 225.917 491.623 204.999 512.54 230.1 537.641 251.016 516.724 257.751 465.726 238.18 446.158" fill="#c9f"/>
      <polygon points="261.012 468.989 255.204 520.908 234.284 541.829 259.387 566.929 280.303 546.008 280.581 488.554 261.012 468.989" fill="#c9f"/>
    </g>
    <g id="Top_Left">
      <polygon points="78.375 280.581 20.917 280.304 0 259.383 25.101 234.282 46.022 255.203 97.944 261.013 78.375 280.581" fill="#c9f"/>
      <polygon points="101.203 257.75 50.205 251.017 29.284 230.1 54.388 204.999 75.305 225.916 120.773 238.185 101.203 257.75" fill="#c9f"/>
      <polygon points="124.034 234.922 79.488 221.733 58.571 200.816 83.672 175.715 104.588 196.632 143.604 215.354 124.034 234.922" fill="#c9f"/>
      <polygon points="146.863 212.091 108.777 192.448 87.856 171.527 112.96 146.427 133.877 167.344 166.431 192.522 146.863 212.091" fill="#c9f"/>
      <polygon points="169.694 189.263 138.06 163.161 117.143 142.244 142.244 117.144 163.161 138.061 189.263 169.694 169.694 189.263" fill="#c9f"/>
      <polygon points="192.521 166.435 167.344 133.877 146.427 112.956 171.527 87.856 192.448 108.776 212.095 146.862 192.521 166.435" fill="#c9f"/>
      <polygon points="215.354 143.604 196.631 104.589 175.712 83.672 200.816 58.571 221.733 79.488 234.923 124.034 215.354 143.604" fill="#c9f"/>
      <polygon points="238.18 120.772 225.916 75.306 204.999 54.389 230.1 29.288 251.017 50.205 257.75 101.203 238.18 120.772" fill="#c9f"/>
      <polygon points="261.013 97.94 255.204 46.022 234.283 25.101 259.387 0 280.304 20.921 280.581 78.375 261.013 97.94" fill="#c9f"/>
    </g>
  </g>
  <g id="Inner_Square">
    <path id="Core" d="M283.467,481.272c-2.231,0-4.464-.854-6.168-2.554l-189.087-189.09c-3.405-3.401-3.405-8.926,0-12.331l170.551-170.551h49.403l170.551,170.551c3.405,3.405,3.405,8.93,0,12.331l-189.084,189.09c-1.703,1.7-3.933,2.554-6.166,2.554" fill="#435"/>
    <path id="Left_Hand" d="M326.159,365.975c2.246,2.495,4.405,4.215,7.235,5.349,2.202.881,4.403,1.069,6.857.441,3.02-.817,5.411-2.33,7.047-4.909.817-1.259,1.445-2.707,1.761-4.153.315-1.384.377-2.895.127-4.406-.316-1.698-.631-3.335-1.699-4.656-1.573-1.952-3.083-3.967-4.779-5.791-4.278-4.595-8.683-9.062-13.023-13.595-.631-.629-1.934-2.549-1.019-3.337.886-.588,2.72,1.267,2.972,1.518,1.447,1.259,11.51,11.261,15.975,15.666.943.882,1.951,1.763,3.021,2.456,3.271,2.012,6.793,2.391,10.505,1.385,3.334-.883,5.474-3.148,6.982-5.917,1.069-1.948,1.699-4.341,1.257-6.798-.628-3.585-2.516-6.417-5.03-8.936-15.916-15.859-31.831-31.782-47.685-47.704-2.958-2.958-6.355-5.288-10.441-6.105-2.203-.44-4.594-.251-6.794.126-3.208.503-5.979,2.143-8.872,3.525-5.22,2.454-10.568,4.721-15.79,7.112-4.15,1.888-8.239,3.9-12.643,5.098-2.831.755-5.597,1.257-8.68.629-4.592-.944-8.619-2.581-12.33-5.476-4.341-3.336-7.171-7.677-8.932-12.839-.566-1.761-1.195-3.524-1.258-5.351,0-.501-.063-1.572,0-2.578.126-1.888.502-3.776.817-5.602.754-4.343,2.768-8.057,5.662-11.268,2.326-2.581,4.906-4.72,7.925-6.483,4.089-2.327,7.926-5.097,12.015-7.425,5.222-3.02,10.505-5.854,15.79-8.747,1.887-1.008,3.711-2.079,5.723-3.212-2.704-3.9-6.7-5.438-10.629-7.049-1.95-.881-3.962-1.316-6.103-1.762-1.6-.299-3.103-.461-4.654-.629-3.02-.315-5.6-.064-8.179.439-6.228,1.195-12.014,3.587-17.676,6.419-4.843,2.455-9.688,4.909-14.405,7.49-3.775,2.077-7.549,4.216-11.134,6.608-4.342,2.958-9.185,4.153-14.343,4.342-1.213-.037-6.291-.943-7.8-1.446-3.648-1.133-7.172-2.454-10.757-3.714-5.472-1.89-10.882-3.777-16.355-5.602-3.018-.943-2.956-.963-2.956,2.077v88.615c0,1.454.093,1.423,1.447,1.948,3.775,1.322,7.612,2.644,11.386,3.903,1.574.566,1.574.504,2.453-1.007,1.259-2.266,2.202-4.656,3.838-6.734,3.459-4.469,7.784-7.443,13.021-9.566,2.551-1.034,5.765-1.493,7.737-1.635,2.181-.156,5.87-.193,8.744.188,2.792.37,4.907,1.446,7.234,2.642,5.787,3.084,9.751,7.678,11.89,13.847.441,1.384,1.07,2.203,2.453,2.643,2.768.881,5.285,2.453,7.423,4.342,3.648,3.21,6.417,7.112,7.864,11.832.314.945.754,1.512,1.572,1.764,2.957.943,5.473,2.705,7.989,4.656,2.076,1.574,3.398,3.586,4.907,5.601,1.573,2.077,2.517,4.531,3.207,6.985.253.944.756,1.385,1.574,1.699,1.51.629,3.144,1.197,4.529,2.077,1.95,1.26,3.963,2.581,5.6,4.218,1.445,1.446,2.452,3.272,3.586,4.971,2.388,3.525,3.583,7.49,3.583,11.769,0,1.639.064,3.211,0,4.847-.063,1.574.503,2.77,1.636,3.84,1.825,1.761,3.587,3.587,5.411,5.349.377.377.755.817,1.194,1.07,3.712,1.95,7.613,2.391,11.387.629,3.459-1.575,5.851-4.154,6.731-8.121.943-4.343-.127-7.929-2.892-11.013-4.529-5.034-9.374-9.881-14.091-14.79-.63-.691-1.918-2.666-1.049-3.582,1.006-.772,4.131,2.512,5.452,3.771,4.467,4.406,8.934,8.873,13.336,13.342,1.071,1.07,3.586,3.84,3.9,4.092,2.58,2.015,5.474,2.832,8.743,2.581,2.642-.189,4.909-1.009,6.796-2.833,1.947-1.888,3.208-4.029,3.834-6.797.692-3.272-.124-6.041-1.633-8.685-1.007-1.825-2.707-3.273-4.151-4.846-1.388-1.448-2.832-2.77-4.217-4.219-2.955-3.145-5.913-6.228-8.808-9.376-.881-.943-2.927-3.572-2.011-4.344.94-.792,5.534,3.841,7.609,5.854l13.081,13.283h0Z" fill="#fff"/>
    <path id="Right_Hand" d="M421.276,316.005c0,2.456,0,2.439-2.642,2.96-2.516.44-5.031,1.006-7.549,1.446-2.453.442-4.904.755-7.36,1.133-2.189.414-10.85,1.722-13.21,1.699-1.76.127-3.585-.316-5.41-.629-2.202-.377-4.213-1.448-5.912-2.832-3.209-2.705-6.227-5.665-9.185-8.622-4.594-4.531-8.996-9.254-13.713-13.657-12.143-11.264-23.467-23.349-35.357-34.866-2.514-2.454-5.661-3.587-9.247-3.838-3.773-.253-7.233.817-10.506,2.454-6.794,3.46-31.2,16.048-36.61,18.88-2.265,1.197-4.592,1.825-7.234,1.764-2.202-.062-4.404-.189-6.48-1.07-4.341-1.888-7.36-5.036-8.618-9.693-.93-3.355-.93-6.022-.504-7.741.881-4.404,3.146-7.866,7.045-10.133,5.032-2.959,10.064-5.916,15.098-8.812,2.955-1.699,5.975-3.336,8.994-4.973,3.02-1.698,6.039-3.523,9.061-5.286,1.697-1.007,3.459-1.951,5.158-2.896,2.579-1.448,5.284-2.768,7.863-4.216,3.901-2.202,7.737-4.533,11.701-6.607,4.277-2.266,8.618-4.596,13.083-6.483,5.347-2.201,10.381-.88,15.162,2.078,3.208,1.95,6.103,4.281,8.87,6.733,2.39,2.141,4.779,4.218,7.233,6.23,2.768,2.265,11.646,9.809,13.401,11.392,3.593,3.348,7.232,5.162,11.7,5.853,1.768.193,3.459-.188,5.159-.566,4.78-.943,9.56-2.012,14.342-3.083,3.459-.755,6.855-1.637,10.317-2.456,4.718-1.07,9.435-2.077,14.092-3.146,1.258-.238,1.194-.254,1.194.943,0,.629.064,65.33.064,78.04h0Z" fill="#fff"/>
    <path id="Fingers" d="M211.36,330.815c0,.802.031,2.047-.317,3.19-.567,1.699-.126,2.015,1.761,2.14,1.95.126,3.9-.189,5.912.377,3.145.882,5.724,2.393,7.423,5.224,2.077,3.398,3.208,6.986,2.077,11.014-.377,1.321.126,1.636,1.51,1.386,1.07-.188,2.14-.316,3.146-.188,1.572.188,3.146.501,4.592,1.067,3.522,1.448,6.039,3.965,7.424,7.553,1.258,3.272,1.132,6.545.502,9.881-.189,1.071.126,1.449,1.195,1.195,4.026-1.006,7.989-.502,11.323,1.826,3.711,2.581,6.165,6.104,6.291,10.949.126,2.202.252,4.405-.628,6.544-1.447,3.4-3.461,6.296-6.416,8.685-3.523,2.77-7.612,4.029-11.828,4.91-1.887.377-3.9,0-5.913-.252-1.636-.189-3.145-.629-4.529-1.448-3.208-1.95-4.97-4.782-5.285-8.559-.252-2.831.692-5.412,1.824-7.867.441-.879.755-1.823,1.196-2.956-1.006.125-1.762.188-2.516.377-1.888.44-3.774,1.134-5.662,1.385-5.347.629-10.379-1.321-12.142-7.174-.565-1.951-.313-4.219,0-6.296.252-1.698,1.071-3.272,1.573-4.971.315-.944,0-1.195-.943-1.006-2.202.566-4.341,1.194-6.542,1.699-2.579.566-7.486-.755-9.499-3.841-1.196-1.762-2.139-3.648-2.642-5.726-.377-1.762,0-3.147.504-4.909.377-1.698,1.384-3.271,2.139-5.222-1.006.124-1.698.124-2.391.378-2.392.69-4.78,1.321-7.36,1.257-2.391-.061-4.34-.817-6.227-2.391-2.013-1.698-3.335-3.838-3.838-6.231-.44-2.328-.566-4.845-.064-7.049,1.133-4.595,3.272-8.873,6.668-12.273,2.705-2.705,5.976-4.781,9.813-5.349,3.774-.502,7.589-.346,10.946,1.951,4.41,3.017,6.48,4.892,6.923,10.72" fill="#fff"/>
  </g>
</svg>
