<?xml version="1.0" encoding="UTF-8"?>
<svg xmlns="http://www.w3.org/2000/svg" version="1.1" viewBox="0 0 566.929 566.929">
  <g id="Outer_Square">
    <g id="Bottom_Right">
      <polygon points="488.554 286.348 546.013 286.625 566.929 307.546 541.829 332.647 520.907 311.726 468.986 305.916 488.554 286.348" fill="#c9f"/>
      <polygon points="465.726 309.179 516.725 315.912 537.646 336.829 512.542 361.93 491.624 341.013 446.157 328.744 465.726 309.179" fill="#c9f"/>
      <polygon points="442.896 332.007 487.441 345.197 508.359 366.114 483.257 391.214 462.341 370.297 423.325 351.575 442.896 332.007" fill="#c9f"/>
      <polygon points="420.067 354.838 458.153 374.481 479.073 395.402 453.97 420.502 433.052 399.585 400.499 374.407 420.067 354.838" fill="#c9f"/>
      <polygon points="397.236 377.666 428.869 403.768 449.786 424.685 424.685 449.785 403.769 428.868 377.666 397.235 397.236 377.666" fill="#c9f"/>
      <polygon points="374.408 400.494 399.585 433.052 420.503 453.973 395.403 479.073 374.482 458.153 354.835 420.067 374.408 400.494" fill="#c9f"/>
      <polygon points="351.575 423.325 370.298 462.34 391.218 483.257 366.113 508.358 345.197 487.441 332.007 442.895 351.575 423.325" fill="#c9f"/>
      <polygon points="328.749 446.157 341.013 491.623 361.931 512.54 336.829 537.641 315.913 516.724 309.179 465.726 328.749 446.157" fill="#c9f"/>
      <polygon points="305.917 468.989 311.726 520.907 332.646 541.828 307.542 566.929 286.627 546.008 286.349 488.554 305.917 468.989" fill="#c9f"/>
    </g>
    <g id="Top_Right">
      <polygon points="488.554 280.581 546.012 280.304 566.929 259.383 541.828 234.282 520.907 255.203 468.986 261.013 488.554 280.581" fill="#c9f"/>
      <polygon points="465.726 257.75 516.725 251.017 537.646 230.1 512.541 204.999 491.624 225.916 446.157 238.185 465.726 257.75" fill="#c9f"/>
      <polygon points="442.895 234.922 487.441 221.733 508.358 200.816 483.257 175.715 462.341 196.632 423.325 215.354 442.895 234.922" fill="#c9f"/>
      <polygon points="420.067 212.091 458.153 192.448 479.073 171.528 453.969 146.427 433.052 167.344 400.498 192.522 420.067 212.091" fill="#c9f"/>
      <polygon points="397.235 189.263 428.869 163.161 449.786 142.244 424.685 117.144 403.768 138.061 377.666 169.695 397.235 189.263" fill="#c9f"/>
      <polygon points="374.408 166.435 399.585 133.877 420.502 112.956 395.403 87.856 374.482 108.777 354.834 146.863 374.408 166.435" fill="#c9f"/>
      <polygon points="351.575 143.604 370.298 104.589 391.218 83.672 366.113 58.572 345.197 79.489 332.007 124.034 351.575 143.604" fill="#c9f"/>
      <polygon points="328.749 120.772 341.013 75.306 361.93 54.389 336.829 29.288 315.912 50.205 309.179 101.203 328.749 120.772" fill="#c9f"/>
      <polygon points="305.916 97.941 311.725 46.022 332.646 25.101 307.542 0 286.626 20.921 286.348 78.375 305.916 97.941" fill="#c9f"/>
    </g>
    <g id="Bottom_Left">
      <polygon points="78.376 286.348 20.917 286.625 0 307.546 25.1 332.647 46.022 311.726 97.944 305.916 78.376 286.348" fill="#c9f"/>
      <polygon points="101.204 309.179 50.205 315.912 29.284 336.829 54.387 361.93 75.305 341.013 120.772 328.744 101.204 309.179" fill="#c9f"/>
      <polygon points="124.034 332.007 79.489 345.197 58.571 366.114 83.673 391.214 104.589 370.297 143.604 351.575 124.034 332.007" fill="#c9f"/>
      <polygon points="146.863 354.838 108.777 374.481 87.856 395.402 112.96 420.502 133.878 399.585 166.43 374.407 146.863 354.838" fill="#c9f"/>
      <polygon points="169.694 377.666 138.06 403.768 117.143 424.685 142.245 449.785 163.161 428.868 189.263 397.235 169.694 377.666" fill="#c9f"/>
      <polygon points="192.521 400.494 167.344 433.052 146.427 453.973 171.527 479.073 192.448 458.153 212.094 420.067 192.521 400.494" fill="#c9f"/>
      <polygon points="215.354 423.325 196.632 462.34 175.712 483.257 200.816 508.358 221.733 487.441 234.923 442.895 215.354 423.325" fill="#c9f"/>
      <polygon points="238.18 446.157 225.917 491.623 204.999 512.54 230.1 537.641 251.016 516.724 257.751 465.726 238.18 446.157" fill="#c9f"/>
      <polygon points="261.012 468.989 255.204 520.907 234.284 541.828 259.387 566.929 280.303 546.008 280.581 488.554 261.012 468.989" fill="#c9f"/>
    </g>
    <g id="Top_Left">
      <polygon points="78.375 280.581 20.917 280.304 0 259.383 25.101 234.282 46.022 255.203 97.944 261.013 78.375 280.581" fill="#c9f"/>
      <polygon points="101.203 257.75 50.205 251.017 29.284 230.1 54.388 204.999 75.305 225.916 120.773 238.185 101.203 257.75" fill="#c9f"/>
      <polygon points="124.034 234.922 79.489 221.733 58.572 200.816 83.673 175.715 104.589 196.632 143.604 215.354 124.034 234.922" fill="#c9f"/>
      <polygon points="146.863 212.091 108.777 192.448 87.856 171.528 112.96 146.427 133.877 167.344 166.431 192.522 146.863 212.091" fill="#c9f"/>
      <polygon points="169.695 189.263 138.06 163.161 117.143 142.244 142.244 117.144 163.161 138.061 189.263 169.695 169.695 189.263" fill="#c9f"/>
      <polygon points="192.521 166.435 167.344 133.877 146.427 112.956 171.527 87.856 192.448 108.777 212.095 146.863 192.521 166.435" fill="#c9f"/>
      <polygon points="215.354 143.604 196.632 104.589 175.712 83.672 200.816 58.572 221.733 79.489 234.923 124.034 215.354 143.604" fill="#c9f"/>
      <polygon points="238.18 120.772 225.916 75.306 204.999 54.389 230.1 29.288 251.017 50.205 257.75 101.203 238.18 120.772" fill="#c9f"/>
      <polygon points="261.013 97.941 255.204 46.022 234.283 25.101 259.387 0 280.304 20.921 280.581 78.375 261.013 97.941" fill="#c9f"/>
    </g>
  </g>
  <g id="Inner_Square">
    <path id="Core" d="M283.467,481.273c-2.231,0-4.464-.854-6.168-2.554l-189.085-189.09c-3.405-3.401-3.405-8.926,0-12.331l170.551-170.551h49.403l170.551,170.551c3.405,3.405,3.405,8.93,0,12.331l-189.084,189.09c-1.703,1.7-3.933,2.554-6.166,2.554" fill="#435"/>
    <path d="M375.835,293.743c-5.73-3.319-64.262-90.906-64.262-90.906l-81.268,130.17,120.846,1.886s-16.409,27.611-17.631,29.869c-2.263,4.183.479,5.69.479,5.69l9.586,5.27s3.662,2.013,6.122-2.061c2.956-4.896,17.735-29.812,17.735-29.812,0,0,13.198,7.249,15.206,8.359,4.43,2.448,26.172-40.186,21.825-42.711-5.251-3.05-23.312-12.667-28.639-15.753h0Z" fill="#c9f"/>
    <path d="M221.874,237.616c-22.75,38.279-24.202,79.408-3.244,91.864,20.958,12.454,56.392-8.478,79.14-46.76,22.75-38.28,24.202-79.41,3.244-91.865-20.958-12.455-56.391,8.479-79.141,46.761h.001Z" fill="#759"/>
    <path d="M292.062,279.846c5.011-8.434,8.988-17.006,11.919-25.379-5.414-9.039-15.298-15.093-26.603-15.093-17.116,0-30.991,13.875-30.991,30.99,0,16.806,13.378,30.477,30.063,30.969,5.588-6.319,10.876-13.521,15.611-21.487h.001Z" fill="#c9f"/>
    <polygon id="Flash" points="204.059 297.355 187.874 311.648 185.661 297.213 163.914 326.18 179.479 314.736 182.377 328.442 198.562 314.149 200.71 326.463 222.092 297.154 206.141 307.548 204.059 297.355" fill="#fff"/>
    <polygon id="Flash1" points="223.5 243.5 202.001 241.5 211 230 175 234 194 237.5 186.001 249 207.501 251 200 261 236 256.5 217.5 252 223.5 243.5" fill="#fff"/>
    <polygon id="Flash2" points="268.36 224.939 256.323 210.188 266.236 207.03 250.298 192.463 264.414 188.722 233.292 170.19 246.332 184.445 233.013 188.789 248.952 203.357 236.937 206.806 268.36 224.939" fill="#fff"/>
  </g>
</svg>